<svg width="390" height="388" viewBox="0 0 390 388" fill="none" xmlns="http://www.w3.org/2000/svg">
<path d="M85.41 0H304.59C351.762 0 390 38.0422 390 84.972V303.028C390 349.958 351.762 388 304.59 388H85.41C38.2383 388 0 349.958 0 303.028V84.972C0 38.0422 38.2383 0 85.41 0Z" fill="url(#paint0_linear)"/>
<path d="M124.986 281.618L125.022 281.63L111.688 304.607C106.82 312.995 96.0405 315.868 87.6098 311.026C79.1806 306.183 76.2906 295.459 81.158 287.071L90.9811 270.145L91.9241 268.52C93.6075 266.113 97.762 261.958 106.072 262.74C106.072 262.74 125.629 264.851 127.044 274.963C127.044 274.963 127.236 278.29 124.986 281.618V281.618ZM314.11 222.933H272.529C269.697 222.744 268.462 221.737 267.974 221.152L267.944 221.099L223.433 144.4L223.375 144.437L220.706 140.63C216.331 133.974 209.384 150.997 209.384 150.997C201.089 169.967 210.562 191.532 213.863 198.051L275.687 304.584C280.553 312.97 291.333 315.846 299.765 311.002C308.194 306.159 311.084 295.435 306.215 287.047L290.757 260.409C290.457 259.763 289.936 258.011 293.106 258.003H314.11C323.845 258.003 331.736 250.152 331.736 240.467C331.736 230.783 323.845 222.932 314.11 222.932V222.933ZM233.346 246.771C233.346 246.771 235.566 258.003 226.978 258.003H73.2651C63.5303 258.003 55.6389 250.152 55.6389 240.467C55.6389 230.783 63.5303 222.932 73.2651 222.932H112.783C119.163 222.565 120.674 218.9 120.674 218.9L120.711 218.918L172.295 130.03L172.279 130.027C173.219 128.31 172.436 126.686 172.301 126.43L155.264 97.0742C150.397 88.6882 153.285 77.9622 161.716 73.1213C170.147 68.2788 180.926 71.1509 185.794 79.5384L193.694 93.1533L201.581 79.5627C206.449 71.1767 217.228 68.3016 225.659 73.1455C234.09 77.9879 236.978 88.711 232.111 97.0984L160.33 220.789C160.016 221.542 159.92 222.724 162.255 222.932H205.161L205.17 223.348C205.17 223.348 229.969 223.732 233.346 246.771Z" fill="white"/>
<defs>
<linearGradient id="paint0_linear" x1="195" y1="0" x2="195" y2="388" gradientUnits="userSpaceOnUse">
<stop stop-color="#17C9FB"/>
<stop offset="1" stop-color="#1A74E8"/>
</linearGradient>
</defs>
</svg>
