<svg width="290" height="43" viewBox="0 0 290 43" fill="none" xmlns="http://www.w3.org/2000/svg">
<circle cx="22.5148" cy="14.5149" r="3.5" transform="rotate(179.756 22.5148 14.5149)" fill="#56CCF2"/>
<path d="M0.00122039 38.0422C0.00181298 37.4442 0.116712 36.8542 0.337602 36.3161C0.558492 35.7778 0.879697 35.3053 1.27715 34.9336C2.33337 33.7834 9.75913 24.8924 14.2865 19.4442C14.5956 19.0671 14.9649 18.7659 15.3734 18.5577C15.7818 18.3496 16.2212 18.2388 16.6663 18.2315C17.1114 18.2243 17.5534 18.3208 17.9669 18.5156C18.3803 18.7104 18.7569 18.9996 19.0752 19.3664C19.3934 19.7333 19.6469 20.1707 19.8211 20.6533C19.9954 21.1359 20.0867 21.6543 20.0902 22.1786C20.0936 22.7029 20.0089 23.2227 19.841 23.7081C19.673 24.1935 19.4252 24.6349 19.1117 25.0069C19.0793 25.0457 15.8183 28.9696 12.5606 32.8641L11.5396 34.0844L26.8461 34.0933C33.0106 34.1016 34.4684 27.8167 34.4707 20.6154C34.473 13.414 33.0043 7.97588 26.8398 7.96761L3.3856 7.95392C2.49058 7.95272 1.63233 7.5328 0.999739 6.78656C0.367146 6.04032 0.012009 5.02885 0.0123404 3.97469C0.0126717 2.92053 0.368444 1.91004 1.00151 1.16549C1.63457 0.420943 2.49308 0.00333256 3.3881 0.00453223L27.4017 0.0367197C37.2879 0.049971 40.9859 9.08281 40.9823 20.6673C40.9787 32.2517 37.2747 42.0682 27.3885 42.0549L3.37489 42.0227C2.47987 42.0211 1.62162 41.6009 0.988825 40.8545C0.356232 40.1081 0.00109134 39.0965 0.00122039 38.0422Z" fill="url(#paint0_linear)"/>
<path d="M61.5339 28.9999V7.67181H67.8327C69.7175 7.67181 71.3874 8.09174 72.8425 8.93158C74.3073 9.77142 75.4401 10.9628 76.2409 12.5058C77.0417 14.0488 77.4421 15.8163 77.4421 17.8085V18.8779C77.4421 20.8994 77.0368 22.6767 76.2263 24.2099C75.4255 25.7431 74.278 26.9247 72.7839 27.7548C71.2995 28.5849 69.5954 28.9999 67.6716 28.9999H61.5339ZM65.2399 10.6601V26.041H67.6569C69.6003 26.041 71.0895 25.4355 72.1247 24.2245C73.1696 23.0038 73.7018 21.2558 73.7214 18.9804V17.7939C73.7214 15.4794 73.2184 13.7119 72.2126 12.4911C71.2067 11.2704 69.7468 10.6601 67.8327 10.6601H65.2399Z" fill="#2FC1EC"/>
<path d="M85.3229 8.41888C85.3229 8.91693 85.1423 9.34662 84.7809 9.70795C84.4196 10.0693 83.9899 10.2499 83.4919 10.2499C82.9938 10.2499 82.569 10.0693 82.2175 9.70795C81.8659 9.34662 81.6901 8.91693 81.6901 8.41888C81.6901 7.92084 81.8659 7.49115 82.2175 7.12982C82.569 6.76849 82.9938 6.58783 83.4919 6.58783C84.0095 6.58783 84.444 6.76361 84.7956 7.11517C85.1472 7.46674 85.3229 7.90131 85.3229 8.41888ZM87.4909 26.3046V28.9999H79.7126V26.3046H82.1149V16.3144H79.7126V13.6044H85.1472V26.3046H87.4909ZM102.359 15.831V13.6044H108.145V16.3144H105.362V27.8574C105.362 30.5429 104.683 32.6132 103.326 34.0683C101.978 35.5331 100.006 36.2656 97.4079 36.2656C94.947 36.2656 92.8474 35.5722 91.1091 34.1855L93.0573 32.0029C93.7604 32.5204 94.4636 32.9062 95.1667 33.1601C95.8796 33.4238 96.6559 33.5556 97.4958 33.5556C99.0192 33.5556 100.211 33.082 101.07 32.1347C101.929 31.1874 102.359 29.9326 102.359 28.3701V26.9345C101.695 27.7158 100.85 28.331 99.8249 28.7802C98.8093 29.2294 97.7936 29.454 96.778 29.454C95.3522 29.454 94.0681 29.0927 92.9255 28.3701C91.7927 27.6474 90.904 26.6904 90.2595 25.499C89.6247 24.2978 89.3073 22.9843 89.3073 21.5585C89.3073 20.1035 89.6393 18.7509 90.3034 17.5009C90.9772 16.2509 91.8952 15.2548 93.0573 14.5126C94.2194 13.7704 95.5085 13.3994 96.9245 13.3994C97.9401 13.3994 98.8874 13.5995 99.7663 13.9999C100.655 14.4003 101.519 15.0107 102.359 15.831ZM97.3493 26.7441C98.3063 26.7441 99.1706 26.5048 99.9421 26.0263C100.714 25.5478 101.314 24.9033 101.744 24.0927C102.174 23.2822 102.388 22.4081 102.388 21.4706C102.388 20.5917 102.174 19.747 101.744 18.9365C101.314 18.1259 100.718 17.4716 99.9567 16.9736C99.195 16.4755 98.3454 16.2265 97.4079 16.2265C96.4899 16.2265 95.655 16.4658 94.903 16.9443C94.1511 17.4228 93.5651 18.0673 93.1452 18.8779C92.7253 19.6884 92.5153 20.5624 92.5153 21.4999C92.5153 22.457 92.7155 23.3359 93.1159 24.1367C93.5163 24.9374 94.0827 25.5722 94.8151 26.041C95.5573 26.5097 96.402 26.7441 97.3493 26.7441ZM114.883 8.41888C114.883 8.91693 114.703 9.34662 114.341 9.70795C113.98 10.0693 113.55 10.2499 113.052 10.2499C112.554 10.2499 112.13 10.0693 111.778 9.70795C111.426 9.34662 111.251 8.91693 111.251 8.41888C111.251 7.92084 111.426 7.49115 111.778 7.12982C112.13 6.76849 112.554 6.58783 113.052 6.58783C113.57 6.58783 114.005 6.76361 114.356 7.11517C114.708 7.46674 114.883 7.90131 114.883 8.41888ZM117.051 26.3046V28.9999H109.273V26.3046H111.675V16.3144H109.273V13.6044H114.708V26.3046H117.051ZM126.573 13.6044V16.3144H123.76V24.3857C123.76 25.2255 123.848 25.7724 124.024 26.0263C124.21 26.2704 124.522 26.3925 124.962 26.3925C125.499 26.3925 126.036 26.2997 126.573 26.1142V28.8535C125.635 29.1269 124.879 29.2636 124.302 29.2636C123.033 29.2636 122.12 28.9462 121.563 28.3115C121.007 27.6669 120.728 26.5683 120.728 25.0156V16.3144H118.721V13.6044H120.728V11.2753L123.76 8.50677V13.6044H126.573ZM141.763 19.039V26.3046H144.341V28.9999H139.097V27.1103C137.633 28.5458 136.002 29.2636 134.205 29.2636C133.258 29.2636 132.388 29.0439 131.597 28.6044C130.816 28.165 130.186 27.579 129.708 26.8466C129.239 26.1044 129.005 25.2841 129.005 24.3857C129.005 23.4189 129.263 22.5595 129.781 21.8076C130.308 21.0458 131.016 20.4599 131.905 20.0497C132.794 19.6396 133.687 19.4345 134.586 19.4345C136.09 19.4345 137.491 19.874 138.79 20.7529V19.0976C138.79 17.8964 138.536 17.037 138.028 16.5195C137.52 16.0019 136.685 15.7431 135.523 15.7431C134.703 15.7431 134.014 15.8945 133.458 16.1972C132.911 16.4902 132.457 16.9394 132.095 17.5449L129.195 16.8271C129.849 15.6064 130.733 14.6982 131.846 14.1025C132.96 13.497 134.283 13.1943 135.816 13.1943C137.877 13.1943 139.381 13.663 140.328 14.6005C141.285 15.538 141.763 17.0175 141.763 19.039ZM134.615 26.9345C136.099 26.9345 137.491 26.3144 138.79 25.0742V23.2724C137.471 22.247 136.153 21.7343 134.835 21.7343C134.034 21.7343 133.341 21.9882 132.755 22.496C132.178 22.9941 131.89 23.624 131.89 24.3857C131.89 25.1181 132.144 25.7285 132.652 26.2167C133.16 26.6953 133.814 26.9345 134.615 26.9345ZM153.585 26.3046V28.9999H145.484V26.3046H148.209V9.59076H145.484V6.92474H151.241V26.3046H153.585Z" fill="black"/>
<path d="M162.616 28.9999H158.924V7.67181H162.616V28.9999ZM167.171 28.9999V7.67181H173.47C175.355 7.67181 177.025 8.09174 178.48 8.93158C179.945 9.77142 181.078 10.9628 181.878 12.5058C182.679 14.0488 183.08 15.8163 183.08 17.8085V18.8779C183.08 20.8994 182.674 22.6767 181.864 24.2099C181.063 25.7431 179.916 26.9247 178.421 27.7548C176.937 28.5849 175.233 28.9999 173.309 28.9999H167.171ZM170.878 10.6601V26.041H173.294C175.238 26.041 176.727 25.4355 177.762 24.2245C178.807 23.0038 179.339 21.2558 179.359 18.9804V17.7939C179.359 15.4794 178.856 13.7119 177.85 12.4911C176.844 11.2704 175.384 10.6601 173.47 10.6601H170.878Z" fill="#66D0D9"/>
<path d="M202.005 22.0712H189.1C189.286 23.5458 189.857 24.7128 190.814 25.5722C191.771 26.4218 192.943 26.8466 194.33 26.8466C195.345 26.8466 196.288 26.6367 197.157 26.2167C198.026 25.7968 198.753 25.1523 199.339 24.2831L202.005 25.4843C201.166 26.7929 200.062 27.7841 198.695 28.4579C197.337 29.122 195.858 29.454 194.256 29.454C192.596 29.454 191.122 29.1074 189.833 28.414C188.544 27.7206 187.538 26.7538 186.815 25.5136C186.102 24.2734 185.746 22.8769 185.746 21.3242C185.746 19.7812 186.097 18.3896 186.8 17.1494C187.513 15.9091 188.485 14.9423 189.715 14.249C190.946 13.5458 192.303 13.1943 193.788 13.1943C195.409 13.1943 196.82 13.5556 198.021 14.2783C199.232 14.9911 200.184 16.0165 200.878 17.3544C201.571 18.6826 201.947 20.2548 202.005 22.0712ZM193.846 15.7138C192.704 15.7138 191.703 16.0995 190.843 16.871C189.984 17.6328 189.432 18.6435 189.188 19.9033H198.827C198.544 18.6435 197.943 17.6328 197.025 16.871C196.107 16.0995 195.047 15.7138 193.846 15.7138ZM218.954 18.6435V26.3046H221.532V28.9999H215.921V18.8339C215.921 17.8671 215.78 17.1738 215.497 16.7538C215.223 16.3339 214.769 16.124 214.134 16.124C212.787 16.124 211.273 16.788 209.593 18.1161V26.3046H212.245V28.9999H203.895V26.3046H206.605V16.3144H203.895V13.6044H209.593V15.4648C211.478 14.0878 213.251 13.3994 214.911 13.3994C216.288 13.3994 217.303 13.8242 217.958 14.6738C218.622 15.5234 218.954 16.8466 218.954 18.6435ZM230.951 13.6044V16.3144H228.138V24.3857C228.138 25.2255 228.226 25.7724 228.402 26.0263C228.587 26.2704 228.9 26.3925 229.339 26.3925C229.877 26.3925 230.414 26.2997 230.951 26.1142V28.8535C230.013 29.1269 229.256 29.2636 228.68 29.2636C227.411 29.2636 226.498 28.9462 225.941 28.3115C225.384 27.6669 225.106 26.5683 225.106 25.0156V16.3144H223.099V13.6044H225.106V11.2753L228.138 8.50677V13.6044H230.951ZM238.246 8.41888C238.246 8.91693 238.065 9.34662 237.704 9.70795C237.342 10.0693 236.913 10.2499 236.415 10.2499C235.917 10.2499 235.492 10.0693 235.14 9.70795C234.789 9.34662 234.613 8.91693 234.613 8.41888C234.613 7.92084 234.789 7.49115 235.14 7.12982C235.492 6.76849 235.917 6.58783 236.415 6.58783C236.932 6.58783 237.367 6.76361 237.718 7.11517C238.07 7.46674 238.246 7.90131 238.246 8.41888ZM240.414 26.3046V28.9999H232.635V26.3046H235.038V16.3144H232.635V13.6044H238.07V26.3046H240.414ZM249.935 13.6044V16.3144H247.123V24.3857C247.123 25.2255 247.211 25.7724 247.386 26.0263C247.572 26.2704 247.884 26.3925 248.324 26.3925C248.861 26.3925 249.398 26.2997 249.935 26.1142V28.8535C248.998 29.1269 248.241 29.2636 247.665 29.2636C246.395 29.2636 245.482 28.9462 244.925 28.3115C244.369 27.6669 244.09 26.5683 244.09 25.0156V16.3144H242.084V13.6044H244.09V11.2753L247.123 8.50677V13.6044H249.935ZM257.23 16.3144L260.57 25.0156L263.807 16.3144H261.756V13.6044H269.11V16.3144H266.839L259.237 35.8994H254.11V33.2626H257.142L258.973 28.7363L253.934 16.3144H251.356V13.6044H259.061V16.3144H257.23Z" fill="black"/>
<defs>
<linearGradient id="paint0_linear" x1="-0.537226" y1="21.0084" x2="45.1882" y2="21.0228" gradientUnits="userSpaceOnUse">
<stop stop-color="#25BEEF"/>
<stop offset="1" stop-color="#6FD3D5"/>
</linearGradient>
</defs>
</svg>
