<svg width="54" height="53" viewBox="0 0 54 53" fill="none" xmlns="http://www.w3.org/2000/svg">
<path d="M0.432632 47.0843C0.433637 46.3442 0.582637 45.6139 0.868849 44.9479C1.15506 44.2815 1.57113 43.6965 2.08588 43.2362C3.45389 41.8118 13.0719 30.8026 18.936 24.0565C19.3363 23.5896 19.8146 23.2164 20.3436 22.9585C20.8724 22.7006 21.4414 22.5631 22.0177 22.5537C22.5939 22.5444 23.1662 22.6636 23.7015 22.9043C24.2367 23.145 24.7242 23.5025 25.1362 23.9563C25.548 24.4101 25.8761 24.9511 26.1015 25.5482C26.3269 26.1454 26.4449 26.7868 26.4492 27.4357C26.4535 28.0845 26.3436 28.7279 26.126 29.3287C25.9082 29.9296 25.5873 30.476 25.1812 30.9366C25.1393 30.9848 20.9154 35.8434 16.6961 40.6658L15.3736 42.1767L35.1918 42.1753C43.1733 42.1805 45.0633 34.4014 45.0691 25.4893C45.0749 16.5773 43.1754 9.84841 35.194 9.84323L4.8265 9.84548C3.66767 9.84473 2.55661 9.32576 1.73786 8.40276C0.919099 7.47976 0.459685 6.22829 0.460531 4.92371C0.461378 3.61913 0.922417 2.3683 1.74237 1.44636C2.56233 0.524414 3.67405 0.00689458 4.83289 0.00764674L35.9246 0.0278273C48.7248 0.0361354 53.5093 11.2118 53.5 25.5483C53.4907 39.8846 48.691 52.0361 35.8909 52.0278L4.79914 52.0076C3.6403 52.0063 2.52924 51.487 1.71022 50.5638C0.891467 49.6406 0.432047 48.389 0.432632 47.0843Z" fill="url(#paint0_linear)"/>
<circle cx="29" cy="19" r="5" fill="#56CCF2"/>
<defs>
<linearGradient id="paint0_linear" x1="-0.257774" y1="26.0044" x2="58.9454" y2="26.0428" gradientUnits="userSpaceOnUse">
<stop stop-color="#25BEEF"/>
<stop offset="1" stop-color="#6FD3D5"/>
</linearGradient>
</defs>
</svg>
