<svg width="3197" height="554" viewBox="0 0 3197 554" fill="none" xmlns="http://www.w3.org/2000/svg">
<circle cx="263.817" cy="186.213" r="50" transform="rotate(179.756 263.817 186.213)" fill="#56CCF2"/>
<path d="M0.00619682 499.119C0.0119207 491.272 1.3707 483.534 3.98421 476.48C6.59772 469.423 10.3988 463.231 15.1027 458.365C27.6026 443.299 115.482 326.828 169.061 255.457C172.718 250.518 177.089 246.574 181.925 243.853C186.758 241.133 191.959 239.688 197.227 239.604C202.496 239.521 207.728 240.798 212.623 243.363C217.517 245.929 221.976 249.732 225.745 254.553C229.511 259.374 232.513 265.119 234.577 271.455C236.64 277.791 237.722 284.595 237.764 291.474C237.807 298.352 236.805 305.17 234.819 311.535C232.83 317.9 229.898 323.684 226.188 328.557C225.805 329.066 187.213 380.469 148.661 431.486L136.577 447.471L317.629 447.471C390.597 447.729 409.489 365.938 409.5 271.455C409.511 176.973 390.597 104.696 317.629 104.438L40.0021 104.438C29.4077 104.401 19.2478 98.8706 11.7582 89.0644C4.26858 79.2583 0.0626597 65.979 0.0643067 52.1484C0.0659537 38.3177 4.27503 25.0686 11.767 15.3153C19.2589 5.56212 29.4202 0.103871 40.0145 0.141351L324.263 1.14694C441.285 1.56093 510.518 119.465 510.5 271.455C510.482 423.443 441.22 552.845 324.198 552.431L39.9489 551.425C29.3545 551.382 19.1945 545.849 11.7025 536.04C4.21291 526.231 0.00694437 512.951 0.00619682 499.119Z" fill="url(#paint0_linear)"/>
<path d="M661.812 367V162.25H722.281C740.375 162.25 756.406 166.281 770.375 174.344C784.438 182.406 795.312 193.844 803 208.656C810.688 223.469 814.531 240.438 814.531 259.562V269.828C814.531 289.234 810.641 306.297 802.859 321.016C795.172 335.734 784.156 347.078 769.812 355.047C755.562 363.016 739.203 367 720.734 367H661.812ZM697.391 190.938V338.594H720.594C739.25 338.594 753.547 332.781 763.484 321.156C773.516 309.438 778.625 292.656 778.812 270.812V259.422C778.812 237.203 773.984 220.234 764.328 208.516C754.672 196.797 740.656 190.938 722.281 190.938H697.391Z" fill="#2FC1EC"/>
<path d="M890.188 169.422C890.188 174.203 888.453 178.328 884.984 181.797C881.516 185.266 877.391 187 872.609 187C867.828 187 863.75 185.266 860.375 181.797C857 178.328 855.312 174.203 855.312 169.422C855.312 164.641 857 160.516 860.375 157.047C863.75 153.578 867.828 151.844 872.609 151.844C877.578 151.844 881.75 153.531 885.125 156.906C888.5 160.281 890.188 164.453 890.188 169.422ZM911 341.125V367H836.328V341.125H859.391V245.219H836.328V219.203H888.5V341.125H911ZM1053.73 240.578V219.203H1109.28V245.219H1082.56V356.031C1082.56 381.812 1076.05 401.688 1063.02 415.656C1050.08 429.719 1031.14 436.75 1006.2 436.75C982.578 436.75 962.422 430.094 945.734 416.781L964.438 395.828C971.188 400.797 977.938 404.5 984.688 406.938C991.531 409.469 998.984 410.734 1007.05 410.734C1021.67 410.734 1033.11 406.188 1041.36 397.094C1049.61 388 1053.73 375.953 1053.73 360.953V347.172C1047.36 354.672 1039.25 360.578 1029.41 364.891C1019.66 369.203 1009.91 371.359 1000.16 371.359C986.469 371.359 974.141 367.891 963.172 360.953C952.297 354.016 943.766 344.828 937.578 333.391C931.484 321.859 928.438 309.25 928.438 295.562C928.438 281.594 931.625 268.609 938 256.609C944.469 244.609 953.281 235.047 964.438 227.922C975.594 220.797 987.969 217.234 1001.56 217.234C1011.31 217.234 1020.41 219.156 1028.84 223C1037.38 226.844 1045.67 232.703 1053.73 240.578ZM1005.64 345.344C1014.83 345.344 1023.12 343.047 1030.53 338.453C1037.94 333.859 1043.7 327.672 1047.83 319.891C1051.95 312.109 1054.02 303.719 1054.02 294.719C1054.02 286.281 1051.95 278.172 1047.83 270.391C1043.7 262.609 1037.98 256.328 1030.67 251.547C1023.36 246.766 1015.2 244.375 1006.2 244.375C997.391 244.375 989.375 246.672 982.156 251.266C974.938 255.859 969.312 262.047 965.281 269.828C961.25 277.609 959.234 286 959.234 295C959.234 304.188 961.156 312.625 965 320.312C968.844 328 974.281 334.094 981.312 338.594C988.438 343.094 996.547 345.344 1005.64 345.344ZM1173.97 169.422C1173.97 174.203 1172.23 178.328 1168.77 181.797C1165.3 185.266 1161.17 187 1156.39 187C1151.61 187 1147.53 185.266 1144.16 181.797C1140.78 178.328 1139.09 174.203 1139.09 169.422C1139.09 164.641 1140.78 160.516 1144.16 157.047C1147.53 153.578 1151.61 151.844 1156.39 151.844C1161.36 151.844 1165.53 153.531 1168.91 156.906C1172.28 160.281 1173.97 164.453 1173.97 169.422ZM1194.78 341.125V367H1120.11V341.125H1143.17V245.219H1120.11V219.203H1172.28V341.125H1194.78ZM1286.19 219.203V245.219H1259.19V322.703C1259.19 330.766 1260.03 336.016 1261.72 338.453C1263.5 340.797 1266.5 341.969 1270.72 341.969C1275.88 341.969 1281.03 341.078 1286.19 339.297V365.594C1277.19 368.219 1269.92 369.531 1264.39 369.531C1252.2 369.531 1243.44 366.484 1238.09 360.391C1232.75 354.203 1230.08 343.656 1230.08 328.75V245.219H1210.81V219.203H1230.08V196.844L1259.19 170.266V219.203H1286.19ZM1432.02 271.375V341.125H1456.77V367H1406.42V348.859C1392.36 362.641 1376.7 369.531 1359.45 369.531C1350.36 369.531 1342.02 367.422 1334.42 363.203C1326.92 358.984 1320.88 353.359 1316.28 346.328C1311.78 339.203 1309.53 331.328 1309.53 322.703C1309.53 313.422 1312.02 305.172 1316.98 297.953C1322.05 290.641 1328.84 285.016 1337.38 281.078C1345.91 277.141 1354.48 275.172 1363.11 275.172C1377.55 275.172 1391 279.391 1403.47 287.828V271.938C1403.47 260.406 1401.03 252.156 1396.16 247.188C1391.28 242.219 1383.27 239.734 1372.11 239.734C1364.23 239.734 1357.62 241.188 1352.28 244.094C1347.03 246.906 1342.67 251.219 1339.2 257.031L1311.36 250.141C1317.64 238.422 1326.12 229.703 1336.81 223.984C1347.5 218.172 1360.2 215.266 1374.92 215.266C1394.7 215.266 1409.14 219.766 1418.23 228.766C1427.42 237.766 1432.02 251.969 1432.02 271.375ZM1363.39 347.172C1377.64 347.172 1391 341.219 1403.47 329.312V312.016C1390.81 302.172 1378.16 297.25 1365.5 297.25C1357.81 297.25 1351.16 299.688 1345.53 304.562C1340 309.344 1337.23 315.391 1337.23 322.703C1337.23 329.734 1339.67 335.594 1344.55 340.281C1349.42 344.875 1355.7 347.172 1363.39 347.172ZM1545.5 341.125V367H1467.73V341.125H1493.89V180.672H1467.73V155.078H1523V341.125H1545.5Z" fill="#E5E5E5"/>
<path d="M1591.36 367H1555.92V162.25H1591.36V367ZM1635.09 367V162.25H1695.56C1713.66 162.25 1729.69 166.281 1743.66 174.344C1757.72 182.406 1768.59 193.844 1776.28 208.656C1783.97 223.469 1787.81 240.438 1787.81 259.562V269.828C1787.81 289.234 1783.92 306.297 1776.14 321.016C1768.45 335.734 1757.44 347.078 1743.09 355.047C1728.84 363.016 1712.48 367 1694.02 367H1635.09ZM1670.67 190.938V338.594H1693.88C1712.53 338.594 1726.83 332.781 1736.77 321.156C1746.8 309.438 1751.91 292.656 1752.09 270.812V259.422C1752.09 237.203 1747.27 220.234 1737.61 208.516C1727.95 196.797 1713.94 190.938 1695.56 190.938H1670.67Z" fill="#66D0D9"/>
<path d="M1969.5 300.484H1845.61C1847.39 314.641 1852.88 325.844 1862.06 334.094C1871.25 342.25 1882.5 346.328 1895.81 346.328C1905.56 346.328 1914.61 344.312 1922.95 340.281C1931.3 336.25 1938.28 330.062 1943.91 321.719L1969.5 333.25C1961.44 345.812 1950.84 355.328 1937.72 361.797C1924.69 368.172 1910.48 371.359 1895.11 371.359C1879.17 371.359 1865.02 368.031 1852.64 361.375C1840.27 354.719 1830.61 345.438 1823.67 333.531C1816.83 321.625 1813.41 308.219 1813.41 293.312C1813.41 278.5 1816.78 265.141 1823.53 253.234C1830.38 241.328 1839.7 232.047 1851.52 225.391C1863.33 218.641 1876.36 215.266 1890.61 215.266C1906.17 215.266 1919.72 218.734 1931.25 225.672C1942.88 232.516 1952.02 242.359 1958.67 255.203C1965.33 267.953 1968.94 283.047 1969.5 300.484ZM1891.17 239.453C1880.2 239.453 1870.59 243.156 1862.34 250.562C1854.09 257.875 1848.8 267.578 1846.45 279.672H1938.98C1936.27 267.578 1930.5 257.875 1921.69 250.562C1912.88 243.156 1902.7 239.453 1891.17 239.453ZM2132.2 267.578V341.125H2156.95V367H2103.09V269.406C2103.09 260.125 2101.73 253.469 2099.02 249.438C2096.39 245.406 2092.03 243.391 2085.94 243.391C2073 243.391 2058.47 249.766 2042.34 262.516V341.125H2067.8V367H1987.64V341.125H2013.66V245.219H1987.64V219.203H2042.34V237.062C2060.44 223.844 2077.45 217.234 2093.39 217.234C2106.61 217.234 2116.36 221.312 2122.64 229.469C2129.02 237.625 2132.2 250.328 2132.2 267.578ZM2247.38 219.203V245.219H2220.38V322.703C2220.38 330.766 2221.22 336.016 2222.91 338.453C2224.69 340.797 2227.69 341.969 2231.91 341.969C2237.06 341.969 2242.22 341.078 2247.38 339.297V365.594C2238.38 368.219 2231.11 369.531 2225.58 369.531C2213.39 369.531 2204.62 366.484 2199.28 360.391C2193.94 354.203 2191.27 343.656 2191.27 328.75V245.219H2172V219.203H2191.27V196.844L2220.38 170.266V219.203H2247.38ZM2317.41 169.422C2317.41 174.203 2315.67 178.328 2312.2 181.797C2308.73 185.266 2304.61 187 2299.83 187C2295.05 187 2290.97 185.266 2287.59 181.797C2284.22 178.328 2282.53 174.203 2282.53 169.422C2282.53 164.641 2284.22 160.516 2287.59 157.047C2290.97 153.578 2295.05 151.844 2299.83 151.844C2304.8 151.844 2308.97 153.531 2312.34 156.906C2315.72 160.281 2317.41 164.453 2317.41 169.422ZM2338.22 341.125V367H2263.55V341.125H2286.61V245.219H2263.55V219.203H2315.72V341.125H2338.22ZM2429.62 219.203V245.219H2402.62V322.703C2402.62 330.766 2403.47 336.016 2405.16 338.453C2406.94 340.797 2409.94 341.969 2414.16 341.969C2419.31 341.969 2424.47 341.078 2429.62 339.297V365.594C2420.62 368.219 2413.36 369.531 2407.83 369.531C2395.64 369.531 2386.88 366.484 2381.53 360.391C2376.19 354.203 2373.52 343.656 2373.52 328.75V245.219H2354.25V219.203H2373.52V196.844L2402.62 170.266V219.203H2429.62ZM2499.66 245.219L2531.72 328.75L2562.8 245.219H2543.11V219.203H2613.7V245.219H2591.91L2518.92 433.234H2469.7V407.922H2498.81L2516.39 364.469L2468.02 245.219H2443.27V219.203H2517.23V245.219H2499.66Z" fill="#E5E5E5"/>
<defs>
<linearGradient id="paint0_linear" x1="-6.40405" y1="275.62" x2="534.847" y2="275.684" gradientUnits="userSpaceOnUse">
<stop stop-color="#25BEEF"/>
<stop offset="1" stop-color="#6FD3D5"/>
</linearGradient>
</defs>
</svg>
