<svg width="41" height="43" viewBox="0 0 41 43" fill="none" xmlns="http://www.w3.org/2000/svg">
<circle cx="21.5148" cy="14.5149" r="3.5" transform="rotate(179.756 21.5148 14.5149)" fill="#56CCF2"/>
<path d="M0.00122039 38.0422C0.00181298 37.4442 0.116712 36.8542 0.337602 36.3161C0.558492 35.7778 0.879697 35.3053 1.27715 34.9336C2.33337 33.7834 9.75913 24.8924 14.2865 19.4442C14.5956 19.0671 14.9649 18.7659 15.3734 18.5577C15.7818 18.3496 16.2212 18.2388 16.6663 18.2315C17.1114 18.2243 17.5534 18.3208 17.9669 18.5156C18.3803 18.7104 18.7569 18.9996 19.0752 19.3664C19.3934 19.7333 19.6469 20.1707 19.8211 20.6533C19.9954 21.1359 20.0867 21.6543 20.0902 22.1786C20.0936 22.7029 20.0089 23.2227 19.841 23.7081C19.673 24.1935 19.4252 24.6349 19.1117 25.0069C19.0793 25.0457 15.8183 28.9696 12.5606 32.8641L11.5396 34.0844L26.8461 34.0933C33.0106 34.1016 34.4684 27.8167 34.4707 20.6154C34.473 13.414 33.0043 7.97588 26.8398 7.96761L3.3856 7.95392C2.49058 7.95272 1.63233 7.5328 0.999739 6.78656C0.367146 6.04032 0.012009 5.02885 0.0123404 3.97469C0.0126717 2.92053 0.368444 1.91004 1.00151 1.16549C1.63457 0.420943 2.49308 0.00333256 3.3881 0.00453223L27.4017 0.0367197C37.2879 0.049971 40.9859 9.08281 40.9823 20.6673C40.9787 32.2517 37.2747 42.0682 27.3885 42.0549L3.37489 42.0227C2.47987 42.0211 1.62162 41.6009 0.988825 40.8545C0.356232 40.1081 0.00109134 39.0965 0.00122039 38.0422Z" fill="url(#paint0_linear)"/>
<defs>
<linearGradient id="paint0_linear" x1="-0.537226" y1="21.0084" x2="45.1882" y2="21.0228" gradientUnits="userSpaceOnUse">
<stop stop-color="#25BEEF"/>
<stop offset="1" stop-color="#6FD3D5"/>
</linearGradient>
</defs>
</svg>
